# AST/ASF file generated using VICON BodyLanguage
# -----------------------------------------------
:version 1.10
:name VICON
:units
  mass 1.0
  length 0.45
  angle deg
:documentation
   .ast/.asf automatically generated from VICON data using
   VICON BodyBuilder and BodyLanguage model FoxedUp or BRILLIANT.MOD
:root
   order TX TY TZ RX RY RZ
   axis XYZ
   position 0 0 0  
   orientation 0 0 0 
:bonedata
  begin
     id 1 
     name lhipjoint
     direction 0.54267 -0.795011 0.271047 
     length 2.39899 
     axis 0 0 0  XYZ
  end
  begin
     id 2 
     name lfemur
     direction 0.34202 -0.939693 0  
     length 7.49701  
     axis 0 0 20  XYZ
    dof rx ry rz
    limits (-160.0 20.0)
           (-70.0 70.0)
           (-60.0 70.0)
  end
  begin
     id 3 
     name ltibia
     direction 0.34202 -0.939693 0   
     length 8.1668   
     axis 0 0 20   XYZ
    dof rx
    limits (-10.0 170.0)
  end
  begin
     id 4 
     name lfoot
     direction 0.0736283 -0.202292 0.976554   
     length 2.13544   
     axis -90 7.62852e-016 20   XYZ
    dof rx rz
    limits (-45.0 90.0)
           (-70.0 20.0)
  end
  begin
     id 5 
     name ltoes
     direction 1.53557e-011 -4.22024e-011 1   
     length 1.07411   
     axis -90 7.62852e-016 20   XYZ
    dof rx
    limits (-90.0 20.0)
  end
  begin
     id 6 
     name rhipjoint
     direction -0.538061 -0.797813 0.272002   
     length 2.39057  
     axis 0 0 0  XYZ 
  end
  begin
     id 7 
     name rfemur
     direction -0.34202 -0.939693 0   
     length 7.50152   
     axis 0 0 -20   XYZ
    dof rx ry rz
    limits (-160.0 20.0)
           (-70.0 70.0)
           (-70.0 60.0)
  end
  begin
     id 8 
     name rtibia
     direction -0.34202 -0.939693 0   
     length 8.05793   
     axis 0 0 -20   XYZ
    dof rx
    limits (-10.0 170.0)
 end
 begin
     id 9 
     name rfoot
     direction -0.0765195 -0.210236 0.974652   
     length 2.28698  
     axis -90 -7.62852e-016 -20   XYZ
    dof rx rz
    limits (-45.0 90.0)
           (-20.0 70.0)
  end
  begin
     id 10 
     name rtoes
     direction -1.53542e-011 -4.21847e-011 1   
     length 1.14762   
     axis -90 -7.62852e-016 -20   XYZ
    dof rx
    limits (-90.0 20.0)
  end
  begin
     id 11 
     name lowerback
     direction -0.0217239 0.996592 -0.0795765   
     length 2.08176   
     axis 0 0 0   XYZ
    dof rx ry rz
    limits (-20.0 45.0)
           (-30.0 30.0)
           (-30.0 30.0)
  end
  begin
     id 12 
     name upperback
     direction -0.00563773 0.999651 -0.0258155   
     length 2.08898   
     axis 0 0 0   XYZ
    dof rx ry rz
    limits (-20.0 45.0)
           (-30.0 30.0)
           (-30.0 30.0)
  end
  begin
     id 13 
     name thorax
     direction 0.0032706 0.999923 0.0119599   
     length 2.0968   
     axis 0 0 0   XYZ
    dof rx ry rz
    limits (-20.0 45.0)
           (-30.0 30.0)
           (-30.0 30.0)
  end
  begin
     id 14 
     name lowerneck
     direction -0.0285886 0.99568 0.0883427   
     length 1.81272   
     axis 0 0 0   XYZ
    dof rx ry rz
    limits (-20.0 45.0)
           (-30.0 30.0)
           (-30.0 30.0)
  end
  begin
     id 15 
     name upperneck
     direction 0.0807535 0.97985 -0.18268   
     length 1.82518   
     axis 0 0 0   XYZ
    dof rx ry rz
    limits (-20.0 45.0)
           (-30.0 30.0)
           (-30.0 30.0)
  end
  begin
     id 16
     name head
     direction 0.0236605 0.997053 -0.0729767  
     length 1.84443  
     axis 0 0 0   XYZ
    dof rx ry rz
    limits (-20.0 45.0)
           (-30.0 30.0)
           (-30.0 30.0)
  end
  begin
     id 17 
     name lclavicle
     direction 0.918986 0.39378 -0.0200683  
     length 3.27822  
     axis 0 0 0   XYZ
    dof ry rz
    limits (-20.0 10.0)
           (0.0 20.0)
  end
  begin
     id 18 
     name lhumerus
     direction 1 -4.4897e-011 2.09544e-027   
     length 5.5568   
     axis 180 -30 -90   XYZ
    dof rx ry rz
    limits (-60.0 90.0)
           (-90.0 90.0)
           (-90.0 90.0)
  end
  begin
     id 19
     name lradius
     direction 1 -4.48957e-011 -1.27696e-026   
     length 3.63979   
     axis 180 -30 -90   XYZ
    dof rx
    limits (-10.0 170.0)
  end
  begin
     id 20
     name lwrist
     direction 1 -4.49001e-011 -1.49001e-026   
     length 1.8199   
     axis 9.0955e-015 90 90   XYZ
    dof ry
    limits (-180.0 0.0)
 end
  begin
     id 21 
     name lhand
     direction 1 -4.48709e-011 -2.9758e-026   
     length 0.569419   
     axis 1.90115e-014 90 90   XYZ
    dof rx rz
    limits (-90.0 90.0)
           (-45.0 45.0)
  end
  begin
     id 22 
     name lfingers
     direction 1 -4.49175e-011 -5.96505e-026   
     length 0.45908   
     axis 3.80223e-014 90 90   XYZ
    dof rx
    limits (0.0 90.0)
  end
  begin
     id 23
     name lthumb
     direction 0.707107 -6.34864e-011 0.707107   
     length 0.65915   
     axis -90 45 -3.84942e-014   XYZ
    dof rx rz
    limits (-45.0 45.0)
           (-45.0 45.0)
  end
  begin
     id 24 
     name rclavicle
     direction -0.911913 0.396426 -0.106115   
     length 3.46301  
     axis 0 0 0   XYZ 
    dof ry rz
    limits (-10.0 20.0)
           (-20.0 0.0)
  end
  begin
     id 25 
     name rhumerus
     direction -1 -4.48965e-011 7.78516e-028  
     length 5.34339   
     axis 180 30 90   XYZ
    dof rx ry rz
    limits (-90.0 60.0)
           (-90.0 90.0)
           (-90.0 90.0)
  end
  begin
     id 26 
     name rradius
     direction -1 -4.48948e-011 -5.79823e-027   
     length 3.65101   
     axis 180 30 90   XYZ
    dof rx
    limits (-10.0 170.0)
  end
  begin
     id 27 
     name rwrist
     direction -1 -4.48995e-011 -1.48996e-026   
     length 1.8255   
     axis 9.0955e-015 -90 -90   XYZ
    dof ry
    limits (-180.0 0.0)
  end
  begin
     id 28
     name rhand
     direction -1 -4.48957e-011 -2.97937e-026   
     length 0.694249   
     axis 1.90115e-014 -90 -90   XYZ
    dof rx rz
    limits (-90.0 90.0)
           (-45.0 45.0)
  end
  begin
     id 29
     name rfingers
     direction -1 -4.4898e-011 -5.95943e-026   
     length 0.559721   
     axis 3.80223e-014 -90 -90   XYZ
    dof rx
    limits (0.0 90.0)
  end
  begin
     id 30
     name rthumb
     direction -0.707107 -6.34969e-011 0.707107   
     length 0.803651   
     axis -90 -45 3.84942e-014   XYZ
    dof rx rz
    limits (-45.0 45.0)
           (-45.0 45.0)
  end
:hierarchy
  begin
    root lhipjoint rhipjoint lowerback
    lhipjoint lfemur
    lfemur ltibia
    ltibia lfoot
    lfoot ltoes
    rhipjoint rfemur
    rfemur rtibia
    rtibia rfoot
    rfoot rtoes
    lowerback upperback
    upperback thorax
    thorax lowerneck lclavicle rclavicle
    lowerneck upperneck
    upperneck head
    lclavicle lhumerus
    lhumerus lradius
    lradius lwrist
    lwrist lhand lthumb
    lhand lfingers
    rclavicle rhumerus
    rhumerus rradius
    rradius rwrist
    rwrist rhand rthumb
    rhand rfingers
  end

#!OML:ASF H:\Terrain\Walking\May29\JustinRory\rory.ASF
:FULLY-SPECIFIED
:DEGREES
112
root 13.3682 18.4815 -7.08714 1.16567 -2.47131 1.47336
lowerback 0.385401 1.38025 -4.73576
upperback -0.073245 1.80553 -2.96416
thorax -0.342049 0.907344 -0.403028
lowerneck -9.44454 -10.2552 -11.5397
upperneck 24.4366 -14.2422 7.55469
head 10.8087 -6.85907 2.73624
rclavicle 1.04859e-014 -2.22639e-014
rhumerus -42.2619 17.9317 -86.0084
rradius 99.1411
rwrist -15.0934
rhand -14.0411 15.9549
rfingers 7.12502
rthumb 12.0895 -13.6758
lclavicle 1.04859e-014 -2.22639e-014
lhumerus -48.238 7.94098 72.5131
lradius 36.6259
lwrist 14.3979
lhand -26.9668 20.8792
lfingers 7.12502
lthumb -0.388041 50.8585
rfemur -4.472 4.68383 17.1933
rtibia 33.8322
rfoot -12.8268 -0.894058
rtoes 1.46602
lfemur -15.311 -4.73999 -20.8029
ltibia 25.3922
lfoot -10.6167 2.09016
ltoes 2.1516
113
root 13.3888 18.4812 -7.03684 1.10861 -2.77756 1.62048
lowerback 0.161876 1.31484 -4.98616
upperback -0.00282697 1.73727 -3.00834
thorax -0.148409 0.869327 -0.301688
lowerneck -9.70986 -10.2141 -11.7253
upperneck 25.0188 -14.2045 7.66203
head 11.0991 -6.8342 2.79318
rclavicle 3.23025e-016 1.03368e-014
rhumerus -42.7472 18.5154 -87.0144
rradius 97.0137
rwrist -15.0226
rhand -15.4416 16.1493
rfingers 7.12502
rthumb 10.7388 -13.5563
lclavicle 3.23025e-016 1.03368e-014
lhumerus -47.8139 8.06356 72.4966
lradius 36.8426
lwrist 14.4488
lhand -27.7608 18.4645
lfingers 7.12502
lthumb -1.1549 48.4412
rfemur -4.46078 4.90547 16.8262
rtibia 33.9114
rfoot -13.4595 -0.765538
rtoes 1.39218
lfemur -15.026 -4.83429 -21.0732
ltibia 25.3738
lfoot -10.941 2.3879
ltoes 2.71745
114
root 13.4116 18.4823 -6.99421 1.24652 -3.09155 1.22192
lowerback -0.0966276 1.32042 -4.61099
upperback -0.108444 1.75839 -2.99089
thorax -0.101864 0.880077 -0.487226
lowerneck -9.61062 -10.1846 -11.6237
upperneck 25.5024 -14.2218 7.58856
head 11.2496 -6.84181 2.7524
rclavicle 4.44781e-015 -1.98785e-014
rhumerus -43.4575 18.2876 -88.2888
rradius 94.7839
rwrist -14.5514
rhand -17.1219 16.8298
rfingers 7.12502
rthumb 9.11769 -12.9531
lclavicle 4.44781e-015 -1.98785e-014
lhumerus -47.2629 7.85444 72.4219
lradius 36.6138
lwrist 14.2654
lhand -26.3948 20.7776
lfingers 7.12502
lthumb 0.164397 50.7573
rfemur -4.63219 5.34159 17.1117
rtibia 33.845
rfoot -14.0652 -1.15177
rtoes 1.18406
lfemur -15.0146 -5.25263 -20.6874
ltibia 25.3998
lfoot -11.3126 2.9364
ltoes 3.771
115
root 13.4336 18.4842 -6.95252 1.3213 -3.31922 0.837757
lowerback -0.25635 1.41464 -4.18199
upperback -0.14485 1.89271 -3.02894
thorax -0.0378531 0.946429 -0.761246
lowerneck -9.85084 -10.2829 -11.4988
upperneck 26.3061 -14.4309 7.54329
head 11.6147 -6.91505 2.66789
rclavicle 1.71452e-015 -1.59028e-015
rhumerus -43.8409 17.6275 -89.4555
rradius 92.2222
rwrist -14.5363
rhand -19.8877 17.6193
rfingers 7.12502
rthumb 6.44824 -12.2625
lclavicle 1.71452e-015 -1.59028e-015
lhumerus -46.4719 7.39607 72.4776
lradius 36.2876
lwrist 14.1284
lhand -25.2864 23.435
lfingers 7.12502
lthumb 1.23496 53.4111
rfemur -4.72864 5.51759 17.3997
rtibia 33.7454
rfoot -14.3122 -1.94211
rtoes -0.17176
lfemur -14.9478 -5.76875 -20.3175
ltibia 25.4563
lfoot -11.6476 3.62253
ltoes 4.36039
116
root 13.4543 18.4865 -6.90376 1.08701 -3.73405 0.914776
lowerback -0.369188 1.51497 -4.24576
upperback 0.0525891 2.04403 -3.13373
thorax 0.227243 1.01665 -0.826486
lowerneck -10.2253 -10.348 -11.5822
upperneck 26.938 -14.5832 7.7105
head 11.9767 -6.95395 2.69541
rclavicle -1.48095e-014 -4.6118e-014
rhumerus -43.6352 17.5495 -90.4214
rradius 89.3565
rwrist -15.4284
rhand -21.7797 18.168
rfingers 7.12502
rthumb 4.62154 -11.7616
lclavicle -1.48095e-014 -4.6118e-014
lhumerus -45.7758 7.41372 72.4671
lradius 36.4621
lwrist 14.1361
lhand -25.7408 22.8765
lfingers 7.12502
lthumb 0.796066 52.8547
rfemur -4.48235 5.54762 17.1706
rtibia 33.5591
rfoot -14.434 -2.88946
rtoes -2.31502
lfemur -14.5239 -5.72574 -20.5411
ltibia 25.6115
lfoot -12.0374 3.9646
ltoes 4.13107
117
root 13.4422 18.4925 -6.90759 1.42368 -3.33987 0.799764
lowerback -0.276548 1.25052 -4.57715
upperback -0.134167 1.67637 -3.05561
thorax -0.0223648 0.837995 -0.568175
lowerneck -10.1425 -10.2856 -11.8023
upperneck 27.3585 -14.5769 7.95894
head 12.1683 -6.94538 2.82701
rclavicle -1.92573e-014 4.77083e-015
rhumerus -43.4834 17.9126 -91.5215
rradius 86.4782
rwrist -16.6547
rhand -22.6324 18.5251
rfingers 7.12502
rthumb 3.79811 -11.4208
lclavicle -1.92573e-014 4.77083e-015
lhumerus -45.2647 7.65224 72.3549
lradius 36.5948
lwrist 13.9923
lhand -26.0107 22.62
lfingers 7.12502
lthumb 0.535381 52.5991
rfemur -4.88905 5.4359 17.3973
rtibia 33.3446
rfoot -14.703 -4.17819
rtoes -1.3142
lfemur -14.9916 -4.59886 -20.3373
ltibia 25.6641
lfoot -11.5592 2.55763
ltoes 3.35533
118
root 13.4407 18.4924 -6.89256 1.51822 -3.7284 0.0249617
lowerback -0.242037 1.25181 -4.06499
upperback -0.30457 1.66671 -2.82122
thorax -0.208812 0.837063 -0.615917
lowerneck -9.90496 -10.2069 -12.0797
upperneck 27.9032 -14.5385 8.11419
head 12.3733 -6.9446 2.94832
rclavicle -1.97294e-014 1.11319e-014
rhumerus -43.3954 18.436 -92.7369
rradius 83.5035
rwrist -18.0594
rhand -23.607 19.3475
rfingers 7.12502
rthumb 2.85689 -10.6131
lclavicle -1.97294e-014 1.11319e-014
lhumerus -44.8186 8.15577 72.0615
lradius 36.5127
lwrist 13.3377
lhand -25.8372 23.1459
lfingers 7.12502
lthumb 0.703026 53.1245
rfemur -5.06804 6.15145 18.2796
rtibia 33.0744
rfoot -15.0797 -5.20773
rtoes 1.71865
lfemur -15.0069 -4.41032 -19.4362
ltibia 25.6705
lfoot -11.6668 2.70877
ltoes 3.05088
119
root 13.4555 18.4898 -6.83996 1.20354 -4.06075 0.533155
lowerback -0.430306 1.23622 -4.67625
upperback -0.191934 1.66488 -2.91707
thorax -0.0021768 0.832379 -0.36801
lowerneck -9.82729 -10.143 -12.2563
upperneck 28.4029 -14.4554 8.06363
head 12.5618 -6.93161 2.97698
rclavicle -2.23881e-014 -2.06736e-014
rhumerus -43.2309 18.9866 -93.8316
rradius 80.7831
rwrist -19.4026
rhand -24.8051 20.6487
rfingers 7.12502
rthumb 1.69976 -9.32425
lclavicle -2.23881e-014 -2.06736e-014
lhumerus -44.3014 8.71482 71.8008
lradius 36.5141
lwrist 12.9233
lhand -25.3659 24.327
lfingers 7.12502
lthumb 1.15813 54.3036
rfemur -4.71535 5.92858 17.4602
rtibia 32.7719
rfoot -15.6485 -5.37532
rtoes 3.91418
lfemur -14.3886 -4.4213 -20.1409
ltibia 25.6451
lfoot -12.0128 3.00943
ltoes 2.64994
120
root 13.4736 18.4864 -6.79779 0.977935 -4.23068 1.09579
lowerback -0.496752 1.16207 -5.37083
upperback -0.104677 1.57823 -2.9663
thorax 0.109839 0.785802 -0.0301854
lowerneck -10.0007 -10.0745 -12.3058
upperneck 28.9814 -14.3117 7.82898
head 12.8009 -6.89006 2.9142
rclavicle -1.23495e-014 3.26007e-014
rhumerus -43.1597 19.4889 -94.8249
rradius 78.5702
rwrist -20.1336
rhand -26.6238 22.1205
rfingers 7.12502
rthumb -0.0567851 -7.85922
lclavicle -1.23495e-014 3.26007e-014
lhumerus -43.7245 9.12968 71.7754
lradius 36.5124
lwrist 12.8267
lhand -24.9841 26.1319
lfingers 7.12502
lthumb 1.52692 56.1062
rfemur -4.47859 5.70712 16.6011
rtibia 32.3379
rfoot -16.0685 -5.72941
rtoes 4.3759
lfemur -13.9627 -4.47142 -20.9097
ltibia 25.6482
lfoot -12.2566 3.2942
ltoes 1.71737
121
root 13.4883 18.4849 -6.77092 0.928307 -4.34304 1.2916
lowerback -0.434879 1.0981 -5.72235
upperback -0.139684 1.48718 -2.90021
thorax 0.0318713 0.742244 0.230662
lowerneck -10.192 -10.0336 -12.4604
upperneck 29.5896 -14.2065 7.66566
head 13.0814 -6.86883 2.88709
rclavicle 2.52084e-014 -5.1684e-014
rhumerus -43.2245 19.669 -95.7126
rradius 76.7927
rwrist -20.2029
rhand -28.285 23.5211
rfingers 7.12502
rthumb -1.66116 -6.45219
lclavicle 2.52084e-014 -5.1684e-014
lhumerus -43.1313 9.49739 71.8638
lradius 36.4734
lwrist 12.8969
lhand -24.8127 27.2189
lfingers 7.12502
lthumb 1.69251 57.192
rfemur -4.4481 5.98928 16.3105
rtibia 31.8316
rfoot -16.1958 -6.56156
rtoes 4.54518
lfemur -13.7653 -4.63642 -21.1938
ltibia 25.5735
lfoot -12.3795 3.5831
ltoes 0.856248
122
root 13.505 18.4876 -6.75938 0.965146 -4.30004 0.851935
lowerback -0.254745 1.10399 -5.30446
upperback -0.153618 1.47895 -2.73102
thorax -0.0770545 0.740681 0.16837
lowerneck -10.4205 -10.0915 -12.5222
upperneck 29.9886 -14.2439 7.52176
head 13.2966 -6.89766 2.82391
rclavicle 1.15544e-014 1.03368e-014
rhumerus -43.2574 19.3029 -96.3702
rradius 75.5918
rwrist -19.8028
rhand -29.3103 24.2203
rfingers 7.12502
rthumb -2.65139 -5.74299
lclavicle 1.15544e-014 1.03368e-014
lhumerus -42.3049 9.54535 72.1257
lradius 36.4515
lwrist 13.0522
lhand -24.48 27.7773
lfingers 7.12502
lthumb 2.01377 57.7476
rfemur -4.53268 6.01663 16.7389
rtibia 31.2851
rfoot -15.7005 -7.35751
rtoes 4.76373
lfemur -13.7202 -4.82996 -20.7249
ltibia 25.5237
lfoot -12.4019 3.64404
ltoes 1.81478
123
root 13.5241 18.4909 -6.74974 1.04672 -4.11503 0.528945
lowerback -0.230477 1.10949 -4.94402
upperback -0.0379521 1.49022 -2.59224
thorax 0.0333334 0.742939 0.111574
lowerneck -10.881 -10.205 -12.4942
upperneck 30.3058 -14.329 7.33218
head 13.5215 -6.93366 2.70707
rclavicle -5.36719e-015 -1.74931e-014
rhumerus -43.2039 18.6671 -96.7875
rradius 74.9781
rwrist -19.1732
rhand -30.3399 24.5648
rfingers 7.12502
rthumb -3.64569 -5.38381
lclavicle -5.36719e-015 -1.74931e-014
lhumerus -41.264 9.34817 72.5938
lradius 36.3303
lwrist 13.0507
lhand -24.194 28.2135
lfingers 7.12502
lthumb 2.29002 58.1809
rfemur -4.65198 5.88979 17.0252
rtibia 30.7444
rfoot -14.9767 -8.26021
rtoes 3.84254
lfemur -13.7587 -4.8884 -20.4035
ltibia 25.4532
lfoot -12.3878 3.54294
ltoes 2.93056
124
root 13.5374 18.491 -6.72764 1.08793 -4.09115 0.865568
lowerback -0.424053 1.25069 -5.30801
upperback 0.175767 1.70504 -2.61275
thorax 0.343695 0.840888 0.300462
lowerneck -11.3224 -10.3839 -12.4971
upperneck 30.4988 -14.5308 7.26096
head 13.7197 -7.00989 2.61891
rclavicle 7.47927e-015 -1.59028e-015
rhumerus -43.3389 17.6076 -96.9915
rradius 75.06
rwrist -18.5175
rhand -31.5343 25.4431
rfingers 7.12502
rthumb -4.79908 -4.48252
lclavicle 7.47927e-015 -1.59028e-015
lhumerus -40.0681 8.795 73.2243
lradius 36.1116
lwrist 13.1766
lhand -24.8253 25.5852
lfingers 7.12502
lthumb 1.68032 55.5583
rfemur -4.69854 5.96459 16.5417
rtibia 30.1862
rfoot -14.5177 -8.7354
rtoes 5.54691
lfemur -13.7446 -4.82571 -20.835
ltibia 25.4182
lfoot -12.4957 3.48701
ltoes 2.58145
125
root 13.5488 18.4871 -6.70301 0.991494 -4.27189 1.25281
lowerback -0.415758 1.44395 -5.7711
upperback 0.336126 1.97276 -2.61032
thorax 0.476995 0.96767 0.562911
lowerneck -11.4842 -10.4828 -12.4477
upperneck 30.4036 -14.6292 7.18537
head 13.7135 -7.0482 2.55414
rclavicle -2.31336e-014 2.54444e-014
rhumerus -44.0122 16.4871 -97.2488
rradius 75.8837
rwrist -17.9724
rhand -32.8278 27.041
rfingers 7.12502
rthumb -6.04792 -2.85263
lclavicle -2.31336e-014 2.54444e-014
lhumerus -39.084 8.54679 73.6655
lradius 36.0406
lwrist 13.1941
lhand -26.2695 20.4309
lfingers 7.12502
lthumb 0.285435 50.4104
rfemur -4.59223 6.06795 15.9457
rtibia 29.6216
rfoot -14.2625 -8.63735
rtoes 9.74315
lfemur -13.5373 -4.78444 -21.3374
ltibia 25.4108
lfoot -12.667 3.56132
ltoes 1.92013
126
root 13.5547 18.4892 -6.68809 1.02398 -4.69345 0.97669
lowerback -0.330344 1.54323 -5.70717
upperback 0.289343 2.09376 -2.31078
thorax 0.365525 1.03108 0.831704
lowerneck -11.3391 -10.388 -12.5333
upperneck 30.2031 -14.4057 7.02086
head 13.5605 -6.98555 2.55282
rclavicle 2.76808e-014 8.74653e-015
rhumerus -45.1537 15.7838 -97.645
rradius 77.1569
rwrist -17.6656
rhand -33.9106 28.188
rfingers 7.12502
rthumb -7.09328 -1.67312
lclavicle 2.76808e-014 8.74653e-015
lhumerus -38.6262 8.8678 73.922
lradius 36.404
lwrist 13.3303
lhand -26.7447 19.3855
lfingers 7.12502
lthumb -0.173516 49.3651
rfemur -4.66494 6.69895 16.1153
rtibia 29.0867
rfoot -14.0022 -8.62414
rtoes 14.2451
lfemur -13.4768 -4.4529 -21.0662
ltibia 25.4397
lfoot -12.7831 3.62037
ltoes 1.37434
